<?xml version="1.0" standalone="no"?>
<!DOCTYPE svg PUBLIC "-//W3C//DTD SVG 20010904//EN"
 "http://www.w3.org/TR/2001/REC-SVG-20010904/DTD/svg10.dtd">
<svg version="1.0" xmlns="http://www.w3.org/2000/svg"
 width="128.000000pt" height="128.000000pt" viewBox="0 0 128.000000 128.000000"
 preserveAspectRatio="xMidYMid meet">

<g transform="translate(0.000000,128.000000) scale(0.100000,-0.100000)"
fill="#000000" stroke="none">
<path d="M392 1259 c-42 -21 -74 -59 -103 -123 -9 -19 -25 -33 -44 -38 -70
-18 -135 -100 -135 -171 0 -28 -6 -40 -29 -56 -72 -52 -102 -188 -61 -279 18
-40 19 -46 4 -73 -21 -42 -28 -116 -15 -165 13 -50 63 -120 99 -141 15 -9 43
-40 62 -70 63 -98 168 -151 276 -140 63 6 107 28 157 75 l37 36 38 -36 c49
-47 93 -69 156 -75 108 -11 213 42 276 140 19 30 47 61 62 70 36 21 86 91 99
141 13 49 6 123 -15 165 -15 27 -14 33 4 73 41 91 11 227 -61 279 -23 16 -29
28 -29 56 0 70 -55 144 -126 168 -30 10 -44 22 -59 54 -61 126 -171 163 -294
99 -58 -30 -62 -31 -80 -14 -52 47 -152 58 -219 25z m141 -100 c23 -11 38 -31
51 -71 4 -14 16 -18 54 -18 46 0 49 1 65 38 19 43 50 62 101 62 51 0 96 -61
96 -129 0 -27 3 -29 54 -36 31 -3 66 -15 80 -26 23 -18 26 -28 26 -82 0 -62 0
-62 40 -87 23 -14 47 -34 54 -45 35 -54 25 -123 -26 -181 l-31 -35 25 -27 c36
-39 48 -65 48 -109 0 -50 -30 -98 -77 -122 -26 -13 -42 -30 -51 -53 -15 -43
-67 -97 -109 -114 -39 -17 -106 -18 -136 -3 -42 22 -87 74 -98 111 -10 37 -10
38 -59 38 -46 0 -50 -2 -56 -27 -17 -72 -92 -133 -163 -133 -82 0 -151 51
-191 141 -7 14 -27 34 -46 42 -52 25 -76 71 -71 135 3 43 10 59 37 87 l33 34
-31 35 c-51 58 -61 127 -26 181 7 11 31 31 54 45 40 25 40 25 40 87 0 54 3 64
26 82 14 11 49 23 80 26 47 6 54 10 54 30 0 107 68 163 153 124z"/>
<path d="M486 803 c-31 -87 -56 -165 -56 -173 0 -31 23 -40 102 -40 61 0 78
-3 78 -14 0 -8 -11 -57 -25 -108 -14 -51 -25 -94 -25 -95 0 -2 13 -3 28 -3 25
0 42 19 143 155 63 85 116 165 117 177 6 35 -24 48 -105 48 -40 0 -73 2 -73 4
0 2 16 46 35 96 19 50 35 96 35 101 0 5 -44 9 -99 9 l-99 0 -56 -157z"/>
</g>
</svg>
