<?xml version="1.0" standalone="no"?>
<!DOCTYPE svg PUBLIC "-//W3C//DTD SVG 20010904//EN"
 "http://www.w3.org/TR/2001/REC-SVG-20010904/DTD/svg10.dtd">
<svg version="1.0" xmlns="http://www.w3.org/2000/svg"
 width="512.000000pt" height="512.000000pt" viewBox="0 0 512.000000 512.000000"
 preserveAspectRatio="xMidYMid meet">

<g transform="translate(0.000000,512.000000) scale(0.100000,-0.100000)"
fill="#000000" stroke="none">
<path d="M2334 5110 c-547 -58 -1049 -281 -1465 -653 -602 -537 -925 -1324
-860 -2092 33 -381 119 -695 282 -1022 l71 -142 -181 -543 c-100 -299 -181
-554 -181 -567 0 -30 61 -91 91 -91 13 0 268 81 567 181 l543 181 142 -71
c1036 -517 2206 -333 3013 473 413 414 658 903 745 1491 20 133 18 501 -4 639
-91 576 -333 1054 -741 1462 -406 405 -887 650 -1453 739 -116 18 -454 27
-569 15z m581 -219 c522 -87 964 -322 1340 -712 349 -362 558 -783 641 -1294
14 -82 18 -165 18 -325 0 -160 -4 -243 -18 -325 -83 -511 -292 -932 -641
-1294 -629 -652 -1489 -887 -2368 -646 -205 56 -362 121 -587 245 -30 16 -66
30 -80 30 -14 0 -234 -70 -489 -155 -256 -85 -466 -153 -468 -152 -1 2 67 212
152 468 85 255 155 475 155 489 0 14 -14 50 -30 80 -124 225 -189 382 -245
587 -170 620 -104 1239 191 1781 186 341 493 668 829 884 307 198 689 328
1065 362 108 10 418 -4 535 -23z"/>
<path d="M2463 4045 c-159 -43 -265 -159 -295 -325 -22 -116 23 -252 112 -340
88 -89 224 -134 340 -112 178 33 299 154 332 332 22 115 -23 252 -110 339 -56
56 -107 85 -189 106 -70 18 -121 18 -190 0z m203 -217 c19 -13 47 -41 62 -62
23 -33 27 -50 27 -106 0 -56 -4 -73 -27 -106 -46 -65 -91 -89 -168 -89 -54 0
-73 5 -103 25 -77 52 -111 140 -88 227 13 48 79 119 125 133 49 15 133 4 172
-22z"/>
<path d="M4184 3851 c-32 -14 -64 -60 -64 -92 0 -17 11 -41 29 -61 60 -67 166
-28 166 62 0 66 -72 116 -131 91z"/>
<path d="M4386 3505 c-66 -35 -71 -78 -22 -193 140 -328 187 -701 131 -1047
-21 -125 -20 -132 19 -171 36 -36 67 -42 109 -23 37 17 54 56 72 169 61 383 2
827 -155 1166 -33 72 -44 87 -74 99 -43 18 -44 18 -80 0z"/>
<path d="M2024 3050 c-12 -4 -31 -21 -43 -36 -20 -25 -21 -37 -21 -255 l0
-229 29 -32 c26 -30 35 -33 100 -36 l71 -4 0 -398 0 -398 -71 -4 c-65 -3 -74
-6 -100 -36 l-29 -32 0 -230 0 -230 29 -32 29 -33 536 -3 535 -3 33 30 33 29
0 242 0 242 -33 29 c-29 26 -40 29 -97 29 l-65 0 -2 671 -3 671 -33 29 -32 29
-423 -1 c-232 0 -432 -4 -443 -9z m736 -855 l0 -665 29 -32 c26 -30 35 -33
100 -36 l71 -4 0 -99 0 -99 -400 0 -400 0 0 100 0 100 65 0 c57 0 68 3 97 29
l33 29 0 542 0 542 -33 29 c-29 26 -40 29 -97 29 l-65 0 0 100 0 100 300 0
300 0 0 -665z"/>
</g>
</svg>
