<?xml version="1.0" standalone="no"?>
<!DOCTYPE svg PUBLIC "-//W3C//DTD SVG 20010904//EN"
 "http://www.w3.org/TR/2001/REC-SVG-20010904/DTD/svg10.dtd">
<svg version="1.0" xmlns="http://www.w3.org/2000/svg"
 width="32.000000pt" height="32.000000pt" viewBox="0 0 32.000000 32.000000"
 preserveAspectRatio="xMidYMid meet">

<g transform="translate(0.000000,32.000000) scale(0.100000,-0.100000)"
fill="#000000" stroke="none">
<path d="M92 304 c-18 -10 -45 -33 -60 -52 -27 -36 -30 -59 -20 -179 1 -16 -1
-39 -6 -51 -7 -22 -6 -23 16 -16 26 9 52 9 119 -1 119 -18 215 110 164 219
-38 80 -139 118 -213 80z m107 -4 c19 -5 47 -22 63 -37 110 -105 -5 -290 -150
-240 -25 9 -47 11 -62 5 -29 -11 -33 -7 -22 22 6 15 4 37 -5 62 -31 91 34 188
132 197 6 1 26 -3 44 -9z"/>
<path d="M140 230 c0 -13 7 -20 20 -20 13 0 20 7 20 20 0 13 -7 20 -20 20 -13
0 -20 -7 -20 -20z m30 0 c0 -5 -4 -10 -10 -10 -5 0 -10 5 -10 10 0 6 5 10 10
10 6 0 10 -4 10 -10z"/>
<path d="M277 178 c8 -57 13 -61 13 -10 0 22 -4 43 -9 46 -5 4 -7 -12 -4 -36z"/>
<path d="M125 130 l0 -60 37 0 38 0 -6 48 c-8 68 -10 72 -41 72 -28 0 -28 -1
-28 -60z m45 16 c0 -19 3 -41 6 -50 4 -11 0 -16 -12 -16 -16 0 -19 8 -19 50 0
33 4 50 13 50 7 0 12 -14 12 -34z"/>
</g>
</svg>
